<svg xmlns="http://www.w3.org/2000/svg" xmlns:svg="http://www.w3.org/2000/svg" id="Layer_1" width="48" height="48" x="0" y="0" enable-background="new 221.5 222.5 55 55" version="1.1" viewBox="221.5 222.5 45 45" xml:space="preserve"><metadata id="metadata8"/><path id="MGA_2_" d="m 239.85485,261.43031 0,-11.5668 c 3.25316,-0.83762 5.65964,-3.78365 5.65964,-7.29791 0,-0.76821 -0.11621,-1.50849 -0.32901,-2.20651 l 6.84439,-3.95194 c 0.53125,0.28676 1.12967,0.46334 1.77637,0.46334 2.08426,0 3.7731,-1.68884 3.7731,-3.7731 0,-2.0835 -1.68884,-3.77309 -3.7731,-3.77309 -2.08501,0 -3.77309,1.68959 -3.77309,3.77309 0,0.034 0.009,0.0664 0.0106,0.0996 l -6.83609,3.94591 c -1.35756,-1.31304 -3.2026,-2.1235 -5.24082,-2.1235 -4.16625,0 -7.54619,3.37843 -7.54619,7.54619 0,3.51501 2.40648,6.46029 5.65964,7.29791 l 0,11.5668" style="fill:none;stroke:#000;stroke-width:1.50923753"/></svg>